<svg xmlns="http://www.w3.org/2000/svg" viewBox="0 0 1078 1011" fill="#C9A962">
<g transform="translate(0,1011) scale(0.1,-0.1)">
<path d="M5373 10093 c-18 -16 -1164 -1918 -1179 -1956 -3 -8 110 -261 255
-568 l260 -554 343 -203 c189 -112 353 -208 365 -214 18 -9 70 16 375 182 194
106 356 196 360 199 17 15 469 1148 465 1166 -6 30 -1184 1938 -1206 1953 -15
10 -21 10 -38 -5z m-3 -1151 l0 -997 -177 -244 c-98 -134 -182 -244 -186 -245
-13 -2 -726 658 -724 670 2 11 1079 1813 1085 1814 1 0 2 -449 2 -998z m606
103 c301 -489 549 -899 551 -910 3 -15 -79 -99 -347 -355 -193 -184 -355 -335
-360 -335 -4 0 -96 112 -204 250 l-196 250 0 999 c0 550 2 997 4 995 2 -2 250
-404 552 -894z m-1326 -1325 c151 -139 288 -265 304 -280 l29 -28 -109 -151
c-60 -82 -112 -150 -115 -151 -3 0 -81 161 -174 358 -275 584 -260 550 -233
526 13 -11 147 -134 298 -274z m1693 -67 c-79 -197 -165 -409 -190 -470 l-45
-113 -42 53 c-23 28 -82 103 -131 166 l-89 113 200 191 c109 105 251 242 314
304 63 62 118 113 121 113 4 0 -58 -161 -138 -357z m-749 2 c185 -235 195
-251 178 -266 -9 -9 -88 -85 -175 -168 -87 -83 -164 -151 -170 -151 -14 0
-382 337 -382 349 0 7 348 491 351 488 1 -1 90 -114 198 -252z m-362 -474
l178 -164 0 -158 c0 -88 -2 -159 -4 -159 -3 0 -615 357 -622 364 -1 0 50 72
113 159 114 157 115 158 136 140 12 -10 101 -92 199 -182z m727 10 c67 -85
118 -158 114 -162 -5 -4 -144 -81 -310 -172 l-303 -166 0 172 0 172 177 168
c143 136 179 165 189 155 7 -7 67 -82 133 -167z"/>
<path d="M2842 5120 c-26 -107 -782 -3362 -782 -3371 0 -17 58 -10 64 9 3 9
84 355 181 767 96 413 177 760 180 773 l5 22 287 -2 286 -3 191 -785 192 -785
118 -3 118 -3 -7 28 c-4 15 -189 782 -411 1703 -222 921 -406 1679 -407 1685
-2 5 -9 -11 -15 -35z m66 -1162 c73 -304 133 -556 132 -560 0 -5 -120 -8 -266
-8 l-266 0 4 23 c23 115 254 1097 258 1097 3 0 65 -249 138 -552z"/>
<path d="M814 5119 c-309 -30 -578 -264 -656 -572 -27 -107 -22 -272 11 -367
62 -180 224 -351 482 -511 45 -28 154 -91 243 -141 225 -127 326 -198 437
-308 207 -206 281 -407 250 -678 -26 -224 -95 -376 -231 -513 -73 -74 -100
-93 -190 -137 -272 -134 -534 -102 -780 95 -76 61 -157 149 -208 226 -20 30
-31 37 -58 37 -19 0 -34 -4 -34 -9 0 -21 91 -143 165 -220 127 -133 262 -217
415 -258 99 -27 292 -24 393 5 305 87 547 314 661 616 43 113 59 210 58 346
-1 257 -89 468 -280 671 -141 150 -262 237 -562 404 -248 137 -361 215 -466
319 -118 118 -156 191 -162 309 -8 170 53 322 183 453 94 95 185 145 310 171
230 47 449 -80 596 -347 41 -74 46 -79 77 -80 30 0 33 2 27 23 -24 79 -133
235 -221 316 -131 119 -278 168 -460 150z"/>
<path d="M4200 3436 l0 -1696 115 0 115 0 0 1079 0 1079 238 4 c228 4 239 5
305 31 84 33 138 69 203 139 67 70 100 125 138 223 28 75 30 88 30 215 0 124
-2 141 -28 210 -71 188 -204 319 -380 377 -79 26 -87 26 -408 31 l-328 4 0
-1696z m675 1597 c95 -50 176 -176 210 -323 23 -98 23 -307 1 -409 -31 -146
-106 -259 -201 -306 -35 -18 -65 -20 -247 -23 l-208 -3 0 546 0 546 203 -3
c184 -3 206 -5 242 -25z"/>
<path d="M5977 5123 c-4 -3 -7 -766 -7 -1695 l0 -1688 115 0 115 0 0 1105 0
1105 610 0 610 0 0 30 0 30 -610 0 -610 0 0 525 0 525 610 0 610 0 0 35 0 35
-718 0 c-395 0 -722 -3 -725 -7z"/>
<path d="M8047 5123 c-4 -3 -7 -766 -7 -1695 l0 -1688 115 0 115 0 0 1695 0
1695 -108 0 c-60 0 -112 -3 -115 -7z"/>
<path d="M9048 5124 c-5 -4 -8 -767 -8 -1696 l0 -1688 115 0 115 0 0 1080 0
1080 113 0 c108 0 114 -1 124 -22 6 -13 228 -495 492 -1073 265 -577 486
-1054 490 -1058 4 -4 57 -6 118 -5 l111 3 -494 1075 c-272 591 -494 1078 -494
1082 0 3 17 12 38 18 127 41 254 140 331 259 118 183 127 425 23 626 -49 95
-164 211 -252 254 -123 60 -146 63 -495 68 -176 3 -323 2 -327 -3z m681 -99
c147 -81 231 -300 218 -570 -12 -241 -84 -392 -220 -460 -50 -24 -56 -25 -254
-25 l-203 0 0 546 0 545 203 -3 202 -3 54 -30z"/>
<path d="M3084 706 c-131 -41 -217 -163 -218 -306 0 -89 21 -145 80 -210 59
-65 141 -100 236 -100 67 0 84 4 139 32 82 43 92 60 57 95 l-27 27 -62 -32
c-70 -36 -127 -41 -187 -16 -152 63 -183 272 -58 382 70 61 171 67 256 14 l48
-30 26 27 c14 15 26 32 26 38 0 15 -69 59 -124 77 -56 19 -135 20 -192 2z"/>
<path d="M3880 711 c-97 -32 -187 -116 -216 -203 -25 -77 -16 -188 21 -257 55
-100 138 -152 256 -159 102 -6 162 14 233 79 209 190 86 533 -196 545 -40 2
-84 0 -98 -5z m196 -116 c122 -72 147 -232 53 -339 -99 -112 -273 -100 -356
25 -35 53 -43 140 -18 204 19 50 91 120 139 135 51 15 132 4 182 -25z"/>
<path d="M4570 488 c0 -196 3 -228 19 -263 39 -83 120 -135 212 -135 77 0 129
19 176 67 65 64 74 109 71 349 l-3 199 -45 0 -45 0 -5 -215 c-4 -187 -7 -219
-24 -246 -52 -87 -185 -85 -243 3 -16 24 -18 55 -21 245 l-3 218 -45 0 -44 0
0 -222z"/>
<path d="M5307 704 c-11 -12 -8 -59 5 -72 7 -7 40 -12 80 -12 l68 0 0 -253 c0
-267 2 -277 46 -277 56 0 54 -9 54 271 l0 259 69 0 c77 0 94 11 89 57 l-3 28
-201 3 c-110 1 -203 -1 -207 -4z"/>
<path d="M5976 694 c-10 -26 -7 -357 4 -415 14 -72 55 -127 121 -162 48 -25
63 -28 125 -25 96 4 156 41 196 117 l28 53 0 224 0 224 -45 0 -45 0 0 -205 c0
-222 -5 -249 -54 -294 -20 -19 -40 -26 -84 -29 -52 -4 -61 -1 -91 24 -56 47
-61 71 -61 299 l0 205 -44 0 c-31 0 -46 -5 -50 -16z"/>
<path d="M6790 405 l0 -305 24 -6 c14 -3 34 -3 45 1 20 6 21 14 21 121 l0 114
65 0 65 0 56 -112 c31 -62 62 -116 68 -120 22 -15 96 -6 96 11 0 5 -28 59 -62
121 -45 85 -57 115 -47 118 31 11 97 89 108 128 17 65 -2 136 -51 181 -47 44
-88 53 -243 53 l-145 0 0 -305z m295 203 c50 -23 71 -101 39 -147 -25 -36 -75
-51 -164 -51 l-80 0 0 105 0 105 90 0 c49 0 101 -5 115 -12z"/>
<path d="M7547 704 c-4 -4 -7 -138 -7 -299 0 -213 3 -294 12 -303 14 -14 345
-17 366 -3 8 5 12 22 10 42 l-3 34 -142 3 -143 3 0 89 0 90 113 0 c61 0 118 4
125 9 8 5 12 22 10 42 l-3 34 -122 3 -123 3 0 84 0 85 133 0 c72 0 138 4 145
9 8 5 12 22 10 42 l-3 34 -186 3 c-102 1 -188 -1 -192 -4z"/>
</g>
</svg>
